<svg width="578" height="450" viewBox="50" fill="none" xmlns="http://www.w3.org/2000/svg">
<path opacity="0.1" d="M486.086 85.1322C489.87 121.194 519.353 151.421 547.194 171.687C556.509 178.473 566.568 185.467 572.442 196.629C579.62 210.249 578.357 226.31 573.757 238.501C565.377 260.725 546.628 274.875 524.941 275.311C506.228 275.696 486.179 266.54 467.575 267.585C436.439 269.31 415.948 298.856 402.714 330.148C393.357 352.284 384.286 378.151 363.468 383.67C348.82 387.567 331.448 379.918 316.779 368.31C309.694 362.703 302.707 356 294.947 353.552C290.341 352.097 285.782 352.274 281.432 352.903C241.661 358.665 215.39 400.184 174.912 403.109C147.576 405.105 117.635 388.606 93.0787 365.176C68.5229 341.746 48.5103 311.769 29.5372 281.708C16.0534 260.346 2.29922 236.937 0.256367 212.628C-1.93203 186.907 10.1327 165.311 27.1669 154.601C44.201 143.892 65.6328 142.65 86.8046 144.957C113.284 147.831 141.561 155.802 164.443 145.575C180.038 138.612 191.26 123.912 203.393 111.098C223.665 89.6789 247.259 72.9572 270.937 56.6668C293.6 41.078 316.68 25.6761 342.67 17.175C361.092 11.1421 380.668 13.179 399.595 9.67673C411.935 7.39556 422.196 0.3234 435.16 0.0168181C451.129 -0.388493 470.835 6.47582 480.846 26.7258C490.379 45.9573 484.074 65.9942 486.086 85.1322Z" fill="#FFF1F1"/>
<path d="M410.682 7.05803L375.179 4.90676L354.636 3.44141V3.40503H354.382H354.096V3.4466L243.631 12.2803H234.472L233.396 50.3951L251.179 56.6619L261.954 111.483L212.921 208.586L183.292 231.034V252.438L201.074 269.668L202.15 348.507L207.541 349.546V348.709L210.249 349.229V349.541L315.484 384.917L319.908 387.915L329.161 382.153L403.701 339.101L410.682 7.05803ZM197.56 262.103L205.358 269.674V270.141L197.56 262.103Z" fill="url(#paint0_linear_32_2)"/>
<path d="M211.736 271.269L316.737 297.77L301.143 280.103L292.306 269.19L200.3 251.003L196.141 254.641L211.736 271.269Z" fill="#535461"/>
<path d="M196.141 254.641L299.583 278.544L300.103 253.601L270.474 242.17L211.216 232.297H194.062L196.141 254.641Z" fill="#D6D6E3"/>
<path d="M270.994 113.301L376.515 120.056V100.31L369.238 56.1419L365.599 53.0242L260.078 56.1419L270.994 113.301Z" fill="#D6D6E3"/>
<path d="M246.043 14.0522H240.845L239.805 51.9852L256.959 58.2208L267.355 112.782L220.053 209.433L191.463 231.777V253.082L208.617 270.23L209.656 348.694L214.854 349.733L213.815 271.789L196.661 253.601L196.141 231.777L223.691 209.953L272.034 113.301L261.637 58.2208L244.484 50.9459L246.043 14.0522Z" fill="#D6D6E3"/>
<path d="M241.885 14.0522H236.686L235.647 51.9852L252.801 58.2208L263.197 112.782L215.894 209.433L187.305 231.777V253.082L204.458 270.23L205.498 348.694L210.696 349.733L209.656 271.789L192.503 253.601L191.983 231.777L220.572 209.953L267.875 113.301L257.479 58.2208L240.325 50.9459L241.885 14.0522Z" fill="#535461"/>
<path d="M241.625 48.0879L244.224 51.7254L258.778 58.4805L374.176 55.3628L363 51.9852L351.044 46.7889L352.604 42.6318L241.625 48.0879Z" fill="#A8A8A8"/>
<path d="M222.132 211.511L327.653 228.659L348.965 183.451L378.075 118.498L270.994 113.301L222.132 211.511Z" fill="black"/>
<g opacity="0.1">
<path d="M276.712 132.008L347.926 137.724L311.019 210.472L241.885 200.08L276.712 132.008Z" fill="white"/>
</g>
<g opacity="0.1">
<path d="M281.624 137.293L284.769 137.547L283.142 140.753L280.091 140.296L281.624 137.293Z" fill="white"/>
</g>
<g opacity="0.1">
<path d="M282.144 167.431L285.289 167.686L283.662 170.892L280.61 170.435L282.144 167.431Z" fill="white"/>
</g>
<g opacity="0.1">
<path d="M299.297 140.93L302.442 141.185L300.815 144.391L297.764 143.934L299.297 140.93Z" fill="white"/>
</g>
<g opacity="0.1">
<path d="M332.045 142.489L335.19 142.744L333.563 145.95L330.512 145.492L332.045 142.489Z" fill="white"/>
</g>
<g opacity="0.1">
<path d="M287.862 146.646L291.007 146.901L289.38 150.107L286.328 149.649L287.862 146.646Z" fill="white"/>
</g>
<g opacity="0.1">
<path d="M299.297 178.343L302.442 178.598L300.815 181.804L297.764 181.347L299.297 178.343Z" fill="white"/>
</g>
<g opacity="0.1">
<path d="M271.228 160.156L274.373 160.411L272.746 163.617L269.694 163.16L271.228 160.156Z" fill="white"/>
</g>
<g opacity="0.1">
<path d="M319.05 140.93L322.195 141.185L320.568 144.391L317.517 143.934L319.05 140.93Z" fill="white"/>
</g>
<g opacity="0.1">
<path d="M294.099 158.598L297.244 158.852L295.617 162.058L292.566 161.601L294.099 158.598Z" fill="white"/>
</g>
<g opacity="0.1">
<path d="M290.461 138.852L293.606 139.106L291.979 142.312L288.927 141.855L290.461 138.852Z" fill="white"/>
</g>
<g opacity="0.1">
<path d="M306.575 157.039L309.72 157.293L308.093 160.499L305.041 160.042L306.575 157.039Z" fill="white"/>
</g>
<g opacity="0.1">
<path d="M310.213 140.93L313.358 141.185L311.731 144.391L308.68 143.934L310.213 140.93Z" fill="white"/>
</g>
<g opacity="0.1">
<path d="M277.465 148.205L280.61 148.46L278.983 151.666L275.932 151.209L277.465 148.205Z" fill="white"/>
</g>
<path d="M194.062 232.297L296.984 253.082L325.335 228.285L222.392 210.732L194.062 232.297Z" fill="#D6D6E3"/>
<path d="M213.295 268.671V349.733L315.178 385.068L316.737 300.888L312.579 293.057L293.865 288.417L213.295 268.671Z" fill="#535461"/>
<path d="M226.55 220.865C228.99 220.865 230.969 219.702 230.969 218.267C230.969 216.832 228.99 215.668 226.55 215.668C224.11 215.668 222.132 216.832 222.132 218.267C222.132 219.702 224.11 220.865 226.55 220.865Z" fill="#575988"/>
<path d="M230.189 226.581C232.629 226.581 234.607 225.417 234.607 223.982C234.607 222.548 232.629 221.384 230.189 221.384C227.749 221.384 225.77 222.548 225.77 223.982C225.77 225.417 227.749 226.581 230.189 226.581Z" fill="#FA595F"/>
<path d="M217.713 225.021C220.154 225.021 222.132 223.858 222.132 222.423C222.132 220.988 220.154 219.825 217.713 219.825C215.273 219.825 213.295 220.988 213.295 222.423C213.295 223.858 215.273 225.021 217.713 225.021Z" fill="#FFD037"/>
<path d="M273.853 230.218C276.293 230.218 278.271 229.055 278.271 227.62C278.271 226.185 276.293 225.021 273.853 225.021C271.413 225.021 269.434 226.185 269.434 227.62C269.434 229.055 271.413 230.218 273.853 230.218Z" fill="#575988"/>
<path d="M265.016 234.895C267.456 234.895 269.434 233.732 269.434 232.297C269.434 230.862 267.456 229.698 265.016 229.698C262.576 229.698 260.598 230.862 260.598 232.297C260.598 233.732 262.576 234.895 265.016 234.895Z" fill="#FFD037"/>
<path d="M248.382 227.62C251.971 227.62 254.88 226.224 254.88 224.502C254.88 222.78 251.971 221.384 248.382 221.384C244.794 221.384 241.885 222.78 241.885 224.502C241.885 226.224 244.794 227.62 248.382 227.62Z" fill="#A8A8A8"/>
<path d="M278.531 235.934C280.971 235.934 282.949 234.771 282.949 233.336C282.949 231.901 280.971 230.738 278.531 230.738C276.091 230.738 274.113 231.901 274.113 233.336C274.113 234.771 276.091 235.934 278.531 235.934Z" fill="#FA595F"/>
<path d="M250.202 223.988H247.083L244.4 213.637C244.288 213.201 244.276 212.746 244.367 212.305C244.458 211.865 244.648 211.451 244.923 211.095C245.199 210.739 245.552 210.452 245.956 210.254C246.36 210.056 246.804 209.953 247.254 209.953C248.036 209.953 248.786 210.263 249.338 210.816C249.891 211.368 250.202 212.118 250.202 212.899V223.988Z" fill="#A8A8A8"/>
<path d="M295.165 235.934C298.754 235.934 301.663 234.538 301.663 232.816C301.663 231.094 298.754 229.698 295.165 229.698C291.576 229.698 288.667 231.094 288.667 232.816C288.667 234.538 291.576 235.934 295.165 235.934Z" fill="#A8A8A8"/>
<path d="M296.984 232.302H293.866L291.183 221.951C291.071 221.515 291.059 221.06 291.15 220.619C291.24 220.179 291.431 219.765 291.706 219.409C291.982 219.053 292.335 218.766 292.739 218.568C293.143 218.369 293.587 218.267 294.037 218.267C294.819 218.267 295.568 218.577 296.121 219.13C296.674 219.682 296.984 220.431 296.984 221.213V232.302Z" fill="#A8A8A8"/>
<path d="M245.523 14.0522L352.604 5.21851L350.005 44.1907L242.924 49.387L245.523 14.0522Z" fill="#535461"/>
<path d="M352.084 5.21851L401.466 8.85591L394.708 339.34L319.076 387.926L313.878 384.288L313.618 297.77L296.984 279.063V253.082L326.094 227.62L375.476 117.978L368.458 55.3628H372.097L348.965 47.3085L352.084 5.21851Z" fill="#D6D6E3"/>
<path d="M356.762 5.73804L406.664 8.85582L399.907 339.34L318.816 387.666V297.77L302.182 279.063V253.082L331.292 227.62L380.674 117.978L371.837 55.1029L354.163 47.3084L356.762 5.73804Z" fill="#535461"/>
<path d="M268.972 205.951C261.694 221.021 243.782 217.113 243.782 217.113C242.857 216.256 237.066 214.821 232.674 213.829C229.856 213.19 227.616 212.743 227.616 212.743L233.765 204.174L238.376 205.12L245.253 206.533C245.253 206.533 276.275 190.887 268.972 205.951Z" fill="url(#paint1_linear_32_2)"/>
<g opacity="0.08">
<path d="M268.972 205.951C261.694 221.021 243.782 217.113 243.782 217.113C242.857 216.256 237.066 214.821 232.674 213.829C229.856 213.19 227.616 212.743 227.616 212.743L233.765 204.174L238.376 205.12L245.253 206.533C245.253 206.533 276.275 190.887 268.972 205.951Z" fill="url(#paint2_linear_32_2)"/>
</g>
<g opacity="0.1">
<path d="M238.381 205.12L232.663 213.834C229.846 213.195 227.605 212.748 227.605 212.748L233.755 204.179L238.381 205.12Z" fill="url(#paint3_linear_32_2)"/>
</g>
<path d="M174.455 173.973C174.455 173.973 201.261 215.85 229.965 215.752L237.762 203.8C237.762 203.8 211.491 185.041 207.998 175.262C206.709 171.625 204.048 166.641 201.209 161.752C192.492 146.771 168.981 156.555 174.148 173.017C174.249 173.343 174.351 173.662 174.455 173.973Z" fill="url(#paint4_linear_32_2)"/>
<g opacity="0.05">
<path d="M174.455 173.973C174.455 173.973 201.261 215.85 229.965 215.752L237.762 203.8C237.762 203.8 211.491 185.041 207.998 175.262C206.709 171.625 204.048 166.641 201.209 161.752C192.492 146.771 168.981 156.555 174.148 173.017C174.249 173.343 174.351 173.662 174.455 173.973Z" fill="url(#paint5_linear_32_2)"/>
</g>
<path d="M157.005 417.384L158.263 431.933C158.263 431.933 199.437 425.095 199.078 411.423C198.72 397.752 157.005 417.384 157.005 417.384Z" fill="url(#paint6_linear_32_2)"/>
<g opacity="0.1">
<path d="M157.005 417.384L158.263 431.933C158.263 431.933 199.437 425.095 199.078 411.423C198.72 397.752 157.005 417.384 157.005 417.384Z" fill="url(#paint7_linear_32_2)"/>
</g>
<path d="M205.191 421.941L204.474 434.562C204.474 434.562 261.653 430.353 259.491 418.454C257.328 406.554 227.127 413.174 227.127 413.174L205.191 421.941Z" fill="url(#paint8_linear_32_2)"/>
<path d="M205.909 298.528C205.909 298.528 202.53 307.882 198.215 318.596C194.088 328.854 189.108 340.385 185.412 346.21C177.86 358.13 176.784 394.946 176.784 394.946C175.344 400.906 182.538 412.478 182.538 412.478C168.155 427.547 154.848 418.791 154.848 418.791C157.364 414.234 153.049 401.259 153.049 401.259C153.049 401.259 158.803 341.304 162.406 338.498C166.008 335.692 168.877 321.667 168.877 321.667L165.66 274.007L164.922 263.095L195.845 249.423L198.075 260.294L200.284 271.056L205.909 298.528Z" fill="url(#paint9_linear_32_2)"/>
<g opacity="0.1">
<path d="M205.909 298.528C205.909 298.528 202.53 307.882 198.215 318.596C194.088 328.854 189.108 340.385 185.412 346.21C177.86 358.13 176.784 394.946 176.784 394.946C175.344 400.906 182.538 412.478 182.538 412.478C168.155 427.547 154.848 418.791 154.848 418.791C157.364 414.234 153.049 401.259 153.049 401.259C153.049 401.259 158.803 341.304 162.406 338.498C166.008 335.692 168.877 321.667 168.877 321.667L165.66 274.007L164.922 263.095L195.845 249.423L198.075 260.294L200.284 271.056L205.909 298.528Z" fill="url(#paint10_linear_32_2)"/>
</g>
<path d="M232.876 414.583C226.405 425.801 203.767 424.398 203.767 424.398V391.438C203.767 391.438 197.295 354.623 200.892 346.231C204.489 337.839 199.453 322.39 199.453 322.39L198.215 318.602L183.552 273.394L179.299 260.289H227.844C227.844 260.289 227.844 262.534 227.844 266.182C227.907 280.212 228.198 314.98 229.627 323.05C231.426 333.219 226.389 339.881 226.389 339.881C226.389 339.881 229.264 381.254 226.748 394.224C224.232 407.194 232.876 414.583 232.876 414.583Z" fill="url(#paint11_linear_32_2)"/>
<path d="M192.965 106.39C192.965 106.39 185.412 126.723 170.312 134.086C155.212 141.45 195.123 143.554 195.123 143.554C195.123 143.554 201.594 128.126 216.336 117.256L192.965 106.39Z" fill="url(#paint12_linear_32_2)"/>
<g opacity="0.1">
<path d="M227.86 266.202C221.841 267.361 211.19 269.346 200.279 271.071C194.561 271.976 188.781 272.807 183.552 273.41C175.505 274.34 168.773 274.73 165.655 274.002L164.916 263.09L195.84 249.418L198.07 260.289H227.845C227.845 260.289 227.845 262.555 227.86 266.202Z" fill="url(#paint13_linear_32_2)"/>
</g>
<path d="M232.876 264.165C232.876 264.165 172.105 276.439 164.558 272.583C157.01 268.728 155.201 258.912 157.364 248.041C159.526 237.171 157.364 210.176 153.408 175.813C151.417 158.509 155.804 146.895 160.659 139.631C162.79 136.5 165.659 133.941 169.013 132.18C172.368 130.419 176.104 129.511 179.892 129.535C186.465 129.508 192.854 131.706 198.018 135.77C199.536 136.981 201.069 137.973 202.322 138.311C203.31 138.576 204.796 139.626 206.48 141.055C213.98 147.511 218.687 156.62 219.616 166.47C220.24 173.002 220.9 181.227 221.222 189.541C221.553 196.641 221.48 203.755 221.004 210.846C220.67 216.038 220.917 221.251 221.742 226.388C224.544 245.334 232.876 264.165 232.876 264.165Z" fill="url(#paint14_linear_32_2)"/>
<g opacity="0.1">
<path d="M221.747 226.414C199.692 212.998 188.287 175.459 188.287 175.459C188.287 175.132 188.287 174.81 188.251 174.493C187.757 157.278 213.113 153.962 217.417 170.669C218.815 176.109 220.016 181.627 220.266 185.442C220.402 186.845 220.725 188.224 221.227 189.541C221.558 196.641 221.485 203.755 221.009 210.846C220.673 216.047 220.921 221.269 221.747 226.414Z" fill="url(#paint15_linear_32_2)"/>
</g>
<g opacity="0.1">
<path d="M189.186 118.487C192.773 124.416 195.611 130.387 202.894 131.4C206.469 126.865 210.625 122.819 215.255 119.366L191.863 108.495C191.863 108.495 193.236 112.205 189.186 118.487Z" fill="url(#paint16_linear_32_2)"/>
</g>
<path d="M207.348 129.524C220.457 129.524 231.083 119.165 231.083 106.385C231.083 93.6058 220.457 83.2461 207.348 83.2461C194.24 83.2461 183.614 93.6058 183.614 106.385C183.614 119.165 194.24 129.524 207.348 129.524Z" fill="url(#paint17_linear_32_2)"/>
<g opacity="0.1">
<path d="M230.807 113.644C231.79 113.686 232.761 113.429 233.594 112.907C234.732 112.08 235.096 110.599 235.356 109.238C235.974 106.022 236.458 102.634 235.356 99.5365C234.644 97.4892 233.277 95.7173 232.32 93.7738C230.189 89.5285 229.809 84.4205 226.769 80.7363C224.871 78.4292 218.202 80.7363 215.416 79.5724C209.428 77.0574 206.829 71.9546 200.305 71.9598C197.914 71.9015 195.528 72.1992 193.225 72.8432C190.309 73.7421 187.731 75.4413 185.335 77.3068C181.176 80.5389 177.101 84.9765 177.47 90.1624C177.709 93.4725 179.731 96.398 180.921 99.4846C182.917 104.681 182.554 110.522 181.114 115.905C180.5 118.196 179.799 120.935 181.426 122.686C182.465 123.782 184.113 124.094 185.584 123.855C187.051 123.53 188.456 122.969 189.743 122.192C192.082 120.95 194.452 119.688 196.344 117.864C197.597 116.658 198.605 115.235 199.796 113.972C202.126 111.557 204.765 109.461 207.645 107.736C209.947 106.354 212.323 107.217 214.74 108.116C220.053 110.064 224.965 113.748 230.807 113.644Z" fill="url(#paint18_linear_32_2)"/>
</g>
<path d="M230.449 113.291C231.431 113.333 232.402 113.076 233.235 112.553C234.373 111.727 234.737 110.246 234.997 108.885C235.616 105.668 236.099 102.28 234.997 99.183C234.285 97.1357 232.918 95.3637 231.961 93.4203C229.83 89.175 229.451 84.067 226.41 80.3828C224.513 78.0757 218.202 80.7362 215.416 79.567C209.428 77.052 206.47 71.6011 199.946 71.6063C197.556 71.548 195.17 71.8457 192.867 72.4896C189.95 73.3886 187.372 75.0878 184.976 76.9533C180.817 80.1854 176.742 84.623 177.111 89.8089C177.35 93.1189 179.372 96.0445 180.563 99.1311C182.559 104.327 182.195 110.168 180.755 115.551C180.142 117.843 179.44 120.581 181.067 122.333C182.106 123.429 183.754 123.741 185.225 123.502C186.693 123.177 188.097 122.615 189.384 121.839C191.723 120.597 194.093 119.334 195.985 117.51C197.238 116.305 198.247 114.881 199.437 113.618C201.768 111.204 204.407 109.107 207.286 107.383C209.589 106.001 211.964 106.863 214.381 107.762C219.694 109.711 224.606 113.395 230.449 113.291Z" fill="url(#paint19_linear_32_2)"/>
<g opacity="0.05">
<path d="M221.747 226.414C220.923 221.277 220.675 216.064 221.009 210.872C221.486 203.781 221.558 196.667 221.227 189.567C220.905 181.253 220.25 173.028 219.621 166.496C218.688 156.635 213.969 147.52 206.454 141.065C204.786 139.636 203.299 138.581 202.296 138.322C201.043 137.989 199.51 136.991 197.992 135.781C192.887 131.712 199.375 139.636 201.043 141.065C208.558 147.52 213.277 156.635 214.21 166.496C214.834 173.028 215.494 181.253 215.816 189.567C216.147 196.667 216.074 203.781 215.598 210.872C215.264 216.064 215.511 221.277 216.336 226.414C219.133 245.344 227.465 264.165 227.465 264.165C227.465 264.165 186.785 272.381 167.853 273.254C182.689 274.293 232.855 264.165 232.855 264.165C232.855 264.165 224.544 245.334 221.747 226.414Z" fill="url(#paint20_linear_32_2)"/>
</g>
<path d="M271.353 229.808C260.203 242.429 244.026 234.017 244.026 234.017C243.366 232.946 238.178 230.062 234.223 227.963C231.681 226.617 229.643 225.599 229.643 225.599L237.913 218.937L242.098 221.047L248.335 224.196C248.335 224.196 282.513 217.186 271.353 229.808Z" fill="url(#paint21_linear_32_2)"/>
<g opacity="0.1">
<path d="M242.098 221.047L234.223 227.963C231.681 226.617 229.643 225.599 229.643 225.599L237.913 218.937L242.098 221.047Z" fill="url(#paint22_linear_32_2)"/>
</g>
<path d="M189.01 174.41C189.01 174.41 203.393 221.743 231.083 229.106L241.869 219.639C241.869 219.639 221.695 194.728 220.988 184.392C220.734 180.573 219.538 175.039 218.14 169.619C213.836 152.918 188.479 156.228 188.973 173.443C188.984 173.762 188.996 174.084 189.01 174.41Z" fill="url(#paint23_linear_32_2)"/>
<path opacity="0.05" d="M161.143 220.517C161.143 220.517 170.499 213.153 179.123 218.765C187.746 224.377 200.336 223.676 202.135 224.024" fill="url(#paint24_linear_32_2)"/>
<path d="M266.279 205.182C259.34 219.878 242.306 216.095 242.306 216.095C241.422 215.258 235.912 213.86 231.738 212.894C229.056 212.27 226.924 211.854 226.924 211.854L232.777 203.494L237.165 204.419L243.709 205.796C243.709 205.796 273.219 190.482 266.279 205.182Z" fill="#873608"/>
<path opacity="0.08" d="M266.279 205.182C259.34 219.878 242.306 216.095 242.306 216.095C241.422 215.258 235.912 213.86 231.738 212.894C229.056 212.27 226.924 211.854 226.924 211.854L232.777 203.494L237.165 204.419L243.709 205.796C243.709 205.796 273.219 190.482 266.279 205.182Z" fill="black"/>
<path opacity="0.1" d="M237.165 204.367L231.738 212.868C229.056 212.244 226.924 211.829 226.924 211.829L232.777 203.468L237.165 204.367Z" fill="black"/>
<path d="M176.331 173.978C176.331 173.978 201.844 214.842 229.154 214.738L236.583 203.098C236.583 203.098 211.585 184.797 208.258 175.252C207.031 171.728 204.5 166.844 201.802 162.084C193.485 147.472 171.133 157.018 176.046 173.08C176.139 173.374 176.234 173.674 176.331 173.978Z" fill="#575988"/>
<path opacity="0.05" d="M176.331 173.978C176.331 173.978 201.844 214.842 229.154 214.738L236.583 203.098C236.583 203.098 211.585 184.797 208.258 175.252C207.031 171.728 204.5 166.844 201.802 162.084C193.485 147.472 171.133 157.018 176.046 173.08C176.139 173.374 176.234 173.674 176.331 173.978Z" fill="black"/>
<path d="M159.724 411.475L160.919 425.672C160.919 425.672 200.102 419 199.759 405.661C199.416 392.322 159.724 411.475 159.724 411.475Z" fill="#535461"/>
<path opacity="0.1" d="M159.724 411.475L160.919 425.672C160.919 425.672 200.102 419 199.759 405.661C199.416 392.322 159.724 411.475 159.724 411.475Z" fill="black"/>
<path d="M205.581 415.923L204.895 428.244C204.895 428.244 259.309 424.139 257.255 412.509C255.202 400.88 226.457 407.375 226.457 407.375L205.581 415.923Z" fill="#535461"/>
<path d="M206.262 295.504C206.262 295.504 203.044 304.618 198.938 315.084C195.008 325.092 190.267 336.342 186.754 342.027C179.591 353.661 178.551 389.578 178.551 389.578C177.184 395.393 184.025 406.684 184.025 406.684C170.338 421.395 157.675 412.842 157.675 412.842C160.072 408.394 155.965 395.735 155.965 395.735C155.965 395.735 161.439 337.236 164.864 334.502C168.29 331.769 171.019 318.082 171.019 318.082L167.957 271.58L167.256 260.954L196.687 247.61L198.824 258.215L200.903 268.717L206.262 295.504Z" fill="black"/>
<path opacity="0.1" d="M206.262 295.504C206.262 295.504 203.044 304.618 198.938 315.084C195.008 325.092 190.267 336.342 186.754 342.027C179.591 353.661 178.551 389.578 178.551 389.578C177.184 395.393 184.025 406.684 184.025 406.684C170.338 421.395 157.675 412.842 157.675 412.842C160.072 408.394 155.965 395.735 155.965 395.735C155.965 395.735 161.439 337.236 164.864 334.502C168.29 331.769 171.019 318.082 171.019 318.082L167.957 271.58L167.256 260.954L196.687 247.61L198.824 258.215L200.903 268.717L206.262 295.504Z" fill="black"/>
<path d="M231.93 408.737C225.77 419.685 204.209 418.314 204.209 418.314V386.154C204.209 386.154 198.049 350.232 201.469 342.022C204.89 333.811 200.102 318.758 200.102 318.758L198.938 315.079L184.981 270.993L180.937 258.21H227.138C227.138 258.21 227.138 260.398 227.138 263.963C227.195 277.645 227.475 311.576 228.837 319.449C230.548 329.369 225.755 335.869 225.755 335.869C225.755 335.869 228.494 376.234 226.098 388.871C223.702 401.509 231.93 408.737 231.93 408.737Z" fill="black"/>
<path d="M193.943 108.038C193.943 108.038 186.754 127.877 172.381 135.058C158.008 142.24 195.996 144.297 195.996 144.297C195.996 144.297 202.156 129.228 216.185 118.638L193.943 108.038Z" fill="#873608"/>
<path opacity="0.1" d="M227.153 263.968C221.425 265.08 211.299 267.034 200.903 268.718C195.466 269.601 189.961 270.412 184.981 270.999C177.324 271.903 170.915 272.287 167.947 271.575L167.245 260.949L196.677 247.605L198.824 258.216H227.158C227.158 258.216 227.138 260.403 227.153 263.968Z" fill="black"/>
<path d="M231.93 261.962C231.93 261.962 174.096 273.914 166.912 270.172C159.729 266.431 158.013 256.828 160.067 246.228C162.12 235.627 160.067 209.282 156.303 175.756C154.406 158.873 158.585 147.545 163.201 140.452C165.189 137.415 167.904 134.922 171.098 133.198C174.293 131.474 177.868 130.574 181.498 130.579C187.776 130.557 193.868 132.703 198.746 136.653C200.191 137.833 201.651 138.805 202.842 139.132C203.783 139.387 205.196 140.416 206.782 141.808C213.971 148.179 218.454 157.055 219.314 166.621C219.912 172.991 220.536 181.019 220.843 189.136C221.159 196.063 221.092 203.002 220.64 209.921C220.322 214.986 220.557 220.07 221.342 225.084C223.998 243.614 231.93 261.962 231.93 261.962Z" fill="#221397"/>
<path opacity="0.1" d="M221.337 225.146C200.347 212.057 189.493 175.428 189.493 175.428C189.493 175.111 189.493 174.794 189.457 174.488C188.989 157.693 213.118 154.456 217.214 170.757C218.545 176.067 219.684 181.446 219.923 185.171C220.052 186.539 220.359 187.884 220.837 189.173C221.154 196.099 221.086 203.038 220.635 209.958C220.315 215.031 220.55 220.124 221.337 225.146Z" fill="black"/>
<path opacity="0.1" d="M190.351 119.838C193.761 125.622 196.464 131.452 203.398 132.434C206.788 128.022 210.742 124.073 215.161 120.691L192.919 110.085C192.919 110.085 194.202 113.712 190.351 119.838Z" fill="black"/>
<path d="M207.634 130.616C220.108 130.616 230.22 120.507 230.22 108.038C230.22 95.5682 220.108 85.4597 207.634 85.4597C195.161 85.4597 185.049 95.5682 185.049 108.038C185.049 120.507 195.161 130.616 207.634 130.616Z" fill="#873608"/>
<path opacity="0.1" d="M229.96 115.115C230.898 115.153 231.824 114.898 232.611 114.387C233.692 113.582 234.041 112.132 234.285 110.807C234.872 107.689 235.325 104.364 234.285 101.34C233.609 99.339 232.325 97.6138 231.395 95.7172C229.362 91.5601 229.004 86.5925 226.114 82.9966C224.305 80.7466 217.963 82.9966 215.307 81.8586C209.589 79.406 207.135 74.4279 200.929 74.4331C198.645 74.3746 196.367 74.6655 194.171 75.2957C191.395 76.1687 188.942 77.8419 186.665 79.6502C182.694 82.8044 178.826 87.1329 179.18 92.1941C179.409 95.4262 181.332 98.253 182.465 101.288C184.368 106.37 184.025 112.06 182.647 117.308C182.065 119.542 181.394 122.213 182.943 123.928C183.91 124.993 185.501 125.305 186.92 125.066C188.326 124.75 189.67 124.202 190.896 123.445C193.121 122.234 195.377 121.002 197.176 119.225C198.366 118.046 199.328 116.658 200.461 115.427C202.671 113.077 205.182 111.031 207.931 109.342C210.124 107.996 212.375 108.822 214.688 109.711C219.725 111.623 224.398 115.219 229.96 115.115Z" fill="black"/>
<path d="M229.617 114.772C230.554 114.813 231.48 114.562 232.268 114.055C233.349 113.25 233.698 111.8 233.942 110.475C234.529 107.357 234.982 104.031 233.942 101.007C233.266 99.0066 231.982 97.2814 231.052 95.3847C229.019 91.2277 228.661 86.26 225.77 82.6642C223.962 80.4142 217.973 83.0124 215.307 81.8692C209.589 79.4165 206.792 74.0747 200.586 74.0747C198.302 74.0162 196.024 74.3071 193.828 74.9373C191.052 75.8103 188.599 77.4835 186.322 79.2918C182.351 82.446 178.483 86.7745 178.837 91.8357C179.066 95.0678 180.989 97.8946 182.122 100.929C184.025 106.011 183.682 111.701 182.304 116.949C181.722 119.184 181.051 121.855 182.6 123.569C183.567 124.635 185.158 124.946 186.577 124.707C187.983 124.391 189.327 123.843 190.553 123.086C192.778 121.875 195.034 120.644 196.833 118.867C198.023 117.687 198.985 116.3 200.118 115.068C202.351 112.721 204.888 110.682 207.66 109.004C209.854 107.658 212.105 108.485 214.418 109.373C219.382 111.27 224.055 114.876 229.617 114.772Z" fill="black"/>
<path opacity="0.05" d="M221.336 225.146C220.56 220.137 220.332 215.058 220.656 209.999C221.107 203.08 221.175 196.141 220.858 189.214C220.552 181.097 219.928 173.074 219.33 166.699C218.47 157.133 213.986 148.257 206.797 141.886C205.212 140.488 203.798 139.465 202.857 139.21C201.667 138.883 200.206 137.911 198.761 136.731C193.901 132.761 200.076 140.494 201.667 141.886C208.856 148.257 213.339 157.133 214.2 166.699C214.797 173.069 215.421 181.097 215.728 189.214C216.044 196.141 215.977 203.08 215.525 209.999C215.207 215.064 215.442 220.148 216.227 225.162C218.888 243.63 226.82 261.993 226.82 261.993C226.82 261.993 188.105 270.006 170.094 270.863C184.212 271.903 231.951 261.993 231.951 261.993C231.951 261.993 223.998 243.614 221.336 225.146Z" fill="black"/>
<path d="M268.546 228.457C257.936 240.772 242.555 232.562 242.555 232.562C241.931 231.523 236.993 228.701 233.199 226.659C230.781 225.344 228.843 224.352 228.843 224.352L236.712 217.851L240.694 219.93L246.646 222.99C246.646 222.99 279.155 216.141 268.546 228.457Z" fill="#873608"/>
<path opacity="0.1" d="M240.705 219.909L233.209 226.664C230.792 225.349 228.853 224.357 228.853 224.357L236.723 217.856L240.705 219.909Z" fill="black"/>
<path d="M190.179 174.405C190.179 174.405 203.866 220.589 230.204 227.771L240.471 218.532C240.471 218.532 221.238 194.228 220.598 184.142C220.354 180.417 219.221 175.033 217.885 169.728C213.789 153.432 189.659 156.664 190.132 173.459C190.15 173.771 190.165 174.086 190.179 174.405Z" fill="#221397"/>
<path opacity="0.05" d="M163.658 219.389C163.658 219.389 172.558 212.202 180.771 217.679C188.984 223.156 200.96 222.47 202.67 222.813" fill="black"/>
<defs>
<linearGradient id="paint0_linear_32_2" x1="296.984" y1="387.931" x2="296.984" y2="3.40503" gradientUnits="userSpaceOnUse">
<stop stop-color="#808080" stop-opacity="0.25"/>
<stop offset="0.54" stop-color="#808080" stop-opacity="0.12"/>
<stop offset="1" stop-color="#808080" stop-opacity="0.1"/>
</linearGradient>
<linearGradient id="paint1_linear_32_2" x1="248.85" y1="217.57" x2="248.85" y2="199.404" gradientUnits="userSpaceOnUse">
<stop stop-color="#808080" stop-opacity="0.25"/>
<stop offset="0.54" stop-color="#808080" stop-opacity="0.12"/>
<stop offset="1" stop-color="#808080" stop-opacity="0.1"/>
</linearGradient>
<linearGradient id="paint2_linear_32_2" x1="248.85" y1="217.57" x2="248.85" y2="199.404" gradientUnits="userSpaceOnUse">
<stop stop-color="#808080" stop-opacity="0.25"/>
<stop offset="0.54" stop-color="#808080" stop-opacity="0.12"/>
<stop offset="1" stop-color="#808080" stop-opacity="0.1"/>
</linearGradient>
<linearGradient id="paint3_linear_32_2" x1="233.001" y1="213.829" x2="233.001" y2="204.174" gradientUnits="userSpaceOnUse">
<stop stop-color="#808080" stop-opacity="0.25"/>
<stop offset="0.54" stop-color="#808080" stop-opacity="0.12"/>
<stop offset="1" stop-color="#808080" stop-opacity="0.1"/>
</linearGradient>
<linearGradient id="paint4_linear_32_2" x1="205.597" y1="215.746" x2="205.597" y2="154.378" gradientUnits="userSpaceOnUse">
<stop stop-color="#808080" stop-opacity="0.25"/>
<stop offset="0.54" stop-color="#808080" stop-opacity="0.12"/>
<stop offset="1" stop-color="#808080" stop-opacity="0.1"/>
</linearGradient>
<linearGradient id="paint5_linear_32_2" x1="205.597" y1="215.746" x2="205.597" y2="154.378" gradientUnits="userSpaceOnUse">
<stop stop-color="#808080" stop-opacity="0.25"/>
<stop offset="0.54" stop-color="#808080" stop-opacity="0.12"/>
<stop offset="1" stop-color="#808080" stop-opacity="0.1"/>
</linearGradient>
<linearGradient id="paint6_linear_32_2" x1="178.042" y1="431.938" x2="178.042" y2="406.586" gradientUnits="userSpaceOnUse">
<stop stop-color="#808080" stop-opacity="0.25"/>
<stop offset="0.54" stop-color="#808080" stop-opacity="0.12"/>
<stop offset="1" stop-color="#808080" stop-opacity="0.1"/>
</linearGradient>
<linearGradient id="paint7_linear_32_2" x1="178.042" y1="431.938" x2="178.042" y2="406.586" gradientUnits="userSpaceOnUse">
<stop stop-color="#808080" stop-opacity="0.25"/>
<stop offset="0.54" stop-color="#808080" stop-opacity="0.12"/>
<stop offset="1" stop-color="#808080" stop-opacity="0.1"/>
</linearGradient>
<linearGradient id="paint8_linear_32_2" x1="232.008" y1="434.568" x2="232.008" y2="411.324" gradientUnits="userSpaceOnUse">
<stop stop-color="#808080" stop-opacity="0.25"/>
<stop offset="0.54" stop-color="#808080" stop-opacity="0.12"/>
<stop offset="1" stop-color="#808080" stop-opacity="0.1"/>
</linearGradient>
<linearGradient id="paint9_linear_32_2" x1="179.481" y1="421.322" x2="179.481" y2="249.439" gradientUnits="userSpaceOnUse">
<stop stop-color="#808080" stop-opacity="0.25"/>
<stop offset="0.54" stop-color="#808080" stop-opacity="0.12"/>
<stop offset="1" stop-color="#808080" stop-opacity="0.1"/>
</linearGradient>
<linearGradient id="paint10_linear_32_2" x1="179.481" y1="421.322" x2="179.481" y2="249.439" gradientUnits="userSpaceOnUse">
<stop stop-color="#808080" stop-opacity="0.25"/>
<stop offset="0.54" stop-color="#808080" stop-opacity="0.12"/>
<stop offset="1" stop-color="#808080" stop-opacity="0.1"/>
</linearGradient>
<linearGradient id="paint11_linear_32_2" x1="206.09" y1="424.456" x2="206.09" y2="260.31" gradientUnits="userSpaceOnUse">
<stop stop-color="#808080" stop-opacity="0.25"/>
<stop offset="0.54" stop-color="#808080" stop-opacity="0.12"/>
<stop offset="1" stop-color="#808080" stop-opacity="0.1"/>
</linearGradient>
<linearGradient id="paint12_linear_32_2" x1="191.619" y1="143.554" x2="191.619" y2="106.39" gradientUnits="userSpaceOnUse">
<stop stop-color="#808080" stop-opacity="0.25"/>
<stop offset="0.54" stop-color="#808080" stop-opacity="0.12"/>
<stop offset="1" stop-color="#808080" stop-opacity="0.1"/>
</linearGradient>
<linearGradient id="paint13_linear_32_2" x1="196.386" y1="274.381" x2="196.386" y2="249.439" gradientUnits="userSpaceOnUse">
<stop stop-color="#808080" stop-opacity="0.25"/>
<stop offset="0.54" stop-color="#808080" stop-opacity="0.12"/>
<stop offset="1" stop-color="#808080" stop-opacity="0.1"/>
</linearGradient>
<linearGradient id="paint14_linear_32_2" x1="192.898" y1="273.332" x2="192.898" y2="129.529" gradientUnits="userSpaceOnUse">
<stop stop-color="#808080" stop-opacity="0.25"/>
<stop offset="0.54" stop-color="#808080" stop-opacity="0.12"/>
<stop offset="1" stop-color="#808080" stop-opacity="0.1"/>
</linearGradient>
<linearGradient id="paint15_linear_32_2" x1="204.999" y1="226.414" x2="204.999" y2="159.725" gradientUnits="userSpaceOnUse">
<stop stop-color="#808080" stop-opacity="0.25"/>
<stop offset="0.54" stop-color="#808080" stop-opacity="0.12"/>
<stop offset="1" stop-color="#808080" stop-opacity="0.1"/>
</linearGradient>
<linearGradient id="paint16_linear_32_2" x1="202.223" y1="131.395" x2="202.223" y2="108.495" gradientUnits="userSpaceOnUse">
<stop stop-color="#808080" stop-opacity="0.25"/>
<stop offset="0.54" stop-color="#808080" stop-opacity="0.12"/>
<stop offset="1" stop-color="#808080" stop-opacity="0.1"/>
</linearGradient>
<linearGradient id="paint17_linear_32_2" x1="207.348" y1="129.53" x2="207.348" y2="83.2461" gradientUnits="userSpaceOnUse">
<stop stop-color="#808080" stop-opacity="0.25"/>
<stop offset="0.54" stop-color="#808080" stop-opacity="0.12"/>
<stop offset="1" stop-color="#808080" stop-opacity="0.1"/>
</linearGradient>
<linearGradient id="paint18_linear_32_2" x1="206.745" y1="123.923" x2="206.745" y2="71.9546" gradientUnits="userSpaceOnUse">
<stop stop-color="#808080" stop-opacity="0.25"/>
<stop offset="0.54" stop-color="#808080" stop-opacity="0.12"/>
<stop offset="1" stop-color="#808080" stop-opacity="0.1"/>
</linearGradient>
<linearGradient id="paint19_linear_32_2" x1="206.382" y1="123.574" x2="206.382" y2="71.6063" gradientUnits="userSpaceOnUse">
<stop stop-color="#808080" stop-opacity="0.25"/>
<stop offset="0.54" stop-color="#808080" stop-opacity="0.12"/>
<stop offset="1" stop-color="#808080" stop-opacity="0.1"/>
</linearGradient>
<linearGradient id="paint20_linear_32_2" x1="200.378" y1="273.332" x2="200.378" y2="134.606" gradientUnits="userSpaceOnUse">
<stop stop-color="#808080" stop-opacity="0.25"/>
<stop offset="0.54" stop-color="#808080" stop-opacity="0.12"/>
<stop offset="1" stop-color="#808080" stop-opacity="0.1"/>
</linearGradient>
<linearGradient id="paint21_linear_32_2" x1="251.615" y1="236.76" x2="251.615" y2="218.937" gradientUnits="userSpaceOnUse">
<stop stop-color="#808080" stop-opacity="0.25"/>
<stop offset="0.54" stop-color="#808080" stop-opacity="0.12"/>
<stop offset="1" stop-color="#808080" stop-opacity="0.1"/>
</linearGradient>
<linearGradient id="paint22_linear_32_2" x1="235.87" y1="227.963" x2="235.87" y2="218.937" gradientUnits="userSpaceOnUse">
<stop stop-color="#808080" stop-opacity="0.25"/>
<stop offset="0.54" stop-color="#808080" stop-opacity="0.12"/>
<stop offset="1" stop-color="#808080" stop-opacity="0.1"/>
</linearGradient>
<linearGradient id="paint23_linear_32_2" x1="215.416" y1="229.106" x2="215.416" y2="158.676" gradientUnits="userSpaceOnUse">
<stop stop-color="#808080" stop-opacity="0.25"/>
<stop offset="0.54" stop-color="#808080" stop-opacity="0.12"/>
<stop offset="1" stop-color="#808080" stop-opacity="0.1"/>
</linearGradient>
<linearGradient id="paint24_linear_32_2" x1="181.639" y1="224.019" x2="181.639" y2="216.656" gradientUnits="userSpaceOnUse">
<stop stop-color="#808080" stop-opacity="0.25"/>
<stop offset="0.54" stop-color="#808080" stop-opacity="0.12"/>
<stop offset="1" stop-color="#808080" stop-opacity="0.1"/>
</linearGradient>
</defs>
</svg>
